
<?xml version="1.0" encoding="UTF-8"?>
<svg width="180px" height="46px" viewBox="0 0 180 46" version="1.1" xmlns="http://www.w3.org/2000/svg" xmlns:xlink="http://www.w3.org/1999/xlink">
    <!-- Generator: Sketch 57.1 (83088) - https://sketch.com -->
    <title>Group 20</title>
    <desc>Created with Sketch.</desc>
    <defs>
        <polygon id="path-1" points="0.248163158 0.437237113 28.0150579 0.437237113 28.0150579 45.5256784 0.248163158 45.5256784"></polygon>
    </defs>
    <g id="Homepage" stroke="none" stroke-width="1" fill="#fff" fill-rule="evenodd">
        <g id="HOMEPAGE-2" transform="translate(-30.000000, -14.000000)">
            <g id="Group-20" transform="translate(30.000000, 14.000000)">
                <path d="M151.854537,35.1111835 L156.246063,34.9940495 C155.632168,36.833101 154.567326,38.4155959 153.073326,39.705967 C151.441484,41.1177402 149.273905,41.8328742 146.6298,41.8328742 C143.887642,41.8328742 141.771695,41.0603588 140.342589,39.536668 C138.905905,38.003967 138.177379,35.9225856 138.177379,33.3494309 C138.177379,31.3562557 138.621695,29.3199258 139.498011,27.2949773 C140.363905,25.2980082 141.645221,23.7065031 143.307853,22.5664619 C144.961011,21.4316371 146.978432,20.8564 149.305642,20.8564 C151.699168,20.8564 153.605747,21.4913897 154.975168,22.7452454 C156.236116,23.8976165 157.016274,25.4165649 157.301905,27.2641526 L152.476011,27.2760082 C152.328221,26.5921732 152.017484,26.0453897 151.546168,25.6394515 C150.043168,24.3528742 148.076432,24.5620082 146.388695,25.9443794 C145.466905,26.6993485 144.719905,27.8531423 144.169958,29.3758845 C143.6328,30.8678021 143.358537,32.3454928 143.358537,33.7686474 C143.358537,34.9101113 143.660274,35.8855959 144.255221,36.669967 C144.877168,37.4913278 145.786168,37.9067505 146.958063,37.9067505 C147.2778,37.9067505 147.578589,37.8612247 147.868958,37.7938845 L147.848116,37.8104825 C147.848116,37.8104825 148.799274,37.6426062 149.589379,36.9587711 L149.587484,36.9578227 C149.7798,36.8193485 150.025642,36.6296577 150.304642,36.3721526 C150.304642,36.3721526 151.279011,35.4104206 151.402168,35.1230392 L151.854537,35.1111835 Z M149.719168,35.6887918 C149.249747,36.1677608 148.804011,36.4617814 148.457274,36.6424619 C148.197695,36.7728742 147.952326,36.8511216 147.743905,36.9042351 C147.496168,36.9673072 147.239905,37.0142557 146.958063,37.0142557 C146.068011,37.0142557 145.415747,36.7259258 144.963379,36.1317196 C144.483063,35.4967299 144.250011,34.7242144 144.250011,33.7686474 C144.250011,32.4493485 144.504853,31.0731423 145.008379,29.6793897 C145.502432,28.3098227 146.157063,27.285967 146.951432,26.6343794 C148.307116,25.5261113 149.783116,25.3018021 150.966379,26.3171216 C151.248221,26.5575546 151.445747,26.8767093 151.560379,27.2769567 C151.560379,27.2769567 151.729011,27.7720495 151.684484,28.1609155 L152.460853,28.1609155 L152.464168,28.1637608 L152.890958,28.1637608 L152.890958,28.1651835 L158.301853,28.1542763 L158.251168,27.6634515 C158.011484,25.3681938 157.112432,23.4926268 155.5758,22.0870186 C154.037274,20.6780907 151.927958,19.9639052 149.305642,19.9639052 C146.795116,19.9639052 144.608116,20.5927299 142.803379,21.8323588 C141.002432,23.0677196 139.614063,24.7867918 138.680432,26.9402557 C137.755326,29.0775959 137.285432,31.2339052 137.285432,33.3494309 C137.285432,36.1559052 138.095432,38.4435753 139.692695,40.1460495 C141.298011,41.857534 143.631379,42.7258433 146.6298,42.7258433 C149.493221,42.7258433 151.856905,41.9362557 153.655484,40.3807918 C155.439853,38.8390804 156.659116,36.9108742 157.281537,34.6511835 L157.440695,34.0712041 L150.788274,34.2485649 C150.557116,34.9788742 149.719168,35.6887918 149.719168,35.6887918 L149.719168,35.6887918 Z" id="Fill-1" fill="#fff"></path>
                <path d="M13.6335789,25.7391814 C13.6335789,26.4685423 13.3792105,27.0821918 12.8548421,27.6123773 C12.3328421,28.1401918 11.6767895,28.3967485 10.8487895,28.3967485 L9.351,28.3967485 L10.1808947,24.2496351 L12.1736842,24.2496351 C13.1968421,24.2496351 13.6335789,24.694934 13.6335789,25.7391814 M20.1107368,25.2900887 C20.1107368,24.0035113 19.8743684,22.896666 19.4077895,21.9989546 C18.9331579,21.0836969 18.2297368,20.3823155 17.3178947,19.9128309 C16.4136316,19.4514082 15.1346842,19.2256763 13.4076316,19.2256763 L4.32426316,19.2256763 L0,41.2364392 L6.85089474,41.2364392 L8.34584211,33.4207072 L10.6389474,33.4207072 C12.7880526,33.4207072 14.5042105,33.1366454 15.7391053,32.5756351 C16.9934211,32.0051402 18.0468947,31.0552639 18.8734737,29.7520887 C19.6943684,28.4555526 20.1107368,26.9532021 20.1107368,25.2900887" id="Fill-3" fill="#fff"></path>
                <path d="M28.6975895,24.3516887 L31.3696421,24.3516887 C32.6405368,24.3516887 33.0592737,24.5688845 33.1947474,24.6974 C33.4344316,24.9255031 33.5509579,25.2432351 33.5509579,25.6662454 C33.5509579,26.0119567 33.4330105,26.3842247 33.2013789,26.7745134 C32.9806421,27.1482041 32.6490632,27.407132 32.1858,27.5678948 C31.8343263,27.6902454 30.9366947,27.8344103 28.6540105,27.8344103 L28.0306421,27.8344103 L28.6975895,24.3516887 Z M34.5973263,32.1811732 C36.3627474,31.7591113 37.6952211,30.9586165 38.5658526,29.7953381 C39.5454316,28.4912144 40.0413789,26.9457093 40.0413789,25.2034 C40.0413789,23.582967 39.5691158,22.1735649 38.6364316,21.0145546 C37.6848,19.8275649 36.1803789,19.2252969 34.1653263,19.2252969 L22.8760105,19.2252969 L18.6327474,41.2360598 L25.4542737,41.2360598 L27.0960632,32.6278948 C27.4968,32.6326371 27.8260105,32.7450289 28.1035895,32.9693381 C28.2400105,33.0774619 28.6563789,33.5877299 29.5838526,35.9508021 C30.2910632,37.7552351 30.9144316,39.438266 31.4345368,40.9543691 L31.5311684,41.2360598 L38.7018,41.2360598 L38.5094842,40.6816887 C37.0263789,36.3956268 35.7393789,33.5991113 34.5973263,32.1811732 L34.5973263,32.1811732 Z" id="Fill-5" fill="#fff"></path>
                <polygon id="Fill-7" fill="#fff" points="43.2531947 19.2254866 38.9706158 41.2362495 45.8442474 41.2362495 50.1277737 19.2254866"></polygon>
                <polygon id="Fill-9" fill="#fff" points="68.4944526 19.2254866 62.3294526 31.5781464 61.6009263 19.2254866 52.9069263 19.2254866 48.2207684 41.2362495 54.5112947 41.2362495 57.0246632 27.859734 57.7735579 41.2362495 63.2389263 41.2362495 69.6521368 27.9692804 66.4524 41.2362495 72.7486105 41.2362495 77.4792947 19.2254866"></polygon>
                <path d="M87.9885947,32.4415711 L84.8220158,32.4415711 L87.5097,26.6498392 L87.9885947,32.4415711 Z M92.4923842,19.2253443 L85.0285421,19.2253443 L72.8032263,41.2361072 L80.7094895,41.2361072 L82.3294895,37.7704577 L88.4703316,37.7704577 L88.7540684,41.2361072 L95.9337,41.2361072 L92.4923842,19.2253443 Z" id="Fill-11" fill="#fff"></path>
                <path d="M119.078716,41.4886804 L134.197295,41.4886804 L134.949032,37.5293608 L124.696611,37.5293608 L125.649663,32.5319588 L134.744874,32.5319588 L135.413716,29.1070928 L126.312821,29.1070928 L127.096768,24.886 L136.544874,24.886 L137.236453,21.2007835 L122.893295,21.2007835 L119.078716,41.4886804 Z M134.908295,42.3479794 L118.041821,42.3479794 L122.179926,20.3414845 L138.270979,20.3414845 L137.258242,25.745299 L127.810137,25.745299 L127.347347,28.2473196 L136.458189,28.2473196 L135.453032,33.3912577 L126.360189,33.3912577 L125.736347,36.6700619 L135.985453,36.6700619 L134.908295,42.3479794 Z" id="Fill-13" fill="#fff"></path>
                <path d="M170.172332,41.4886804 L175.0797,41.4886804 L178.917489,21.2007835 L174.022911,21.2007835 L172.563016,28.6731753 L165.465805,28.6731753 L166.875963,21.2007835 L161.969542,21.2007835 L158.133174,41.4886804 L163.085068,41.4886804 L164.675226,32.8914227 L171.787121,32.8914227 L170.172332,41.4886804 Z M175.790226,42.3479794 L169.137805,42.3479794 L170.7507,33.7511959 L165.390489,33.7511959 L163.801279,42.3479794 L157.096753,42.3479794 L161.259016,20.3414845 L167.912384,20.3414845 L166.5027,27.8138763 L171.854858,27.8138763 L173.314753,20.3414845 L179.953911,20.3414845 L175.790226,42.3479794 Z" id="Fill-15" fill="#fff"></path>
                <g id="Group-19" transform="translate(99.000000, 0.037179)">
                    <mask id="mask-2" fill="#fff">
                        <use xlink:href="#path-1"></use>
                    </mask>
                    <g id="Clip-18"></g>
                    <path d="M24.8271632,17.0640082 L28.0150579,8.90778144 L17.1719526,13.6400907 L22.3900579,0.437142268 L14.9456368,2.92114227 L8.79058421,16.9288536 L1.50911053,21.4136165 L0.248163158,26.039699 L6.51737368,23.3124206 C5.30474211,26.7273278 2.22342632,35.4061526 0.899005263,39.1662969 C-0.160626316,42.1733691 0.931215789,43.768668 1.67584737,44.4520289 C2.44795263,45.1600495 3.52037368,45.5256784 4.66574211,45.5256784 C5.45868947,45.5256784 6.28526842,45.3497402 7.07158421,44.9926474 C10.2211105,43.5581113 22.6439526,23.6135546 24.0498474,21.3434309 L23.0067947,20.5666474 C22.9646368,20.6140701 18.7412684,25.4113485 11.0339526,34.5041732 C9.36800526,36.4679464 8.26763684,37.6758021 7.5429,38.417967 L13.9850053,20.6814103 L24.8271632,17.0640082 Z" id="Fill-17" fill="#fff" mask="url(#mask-2)"></path>
                </g>
            </g>
        </g>
    </g>
</svg>